<svg xmlns="http://www.w3.org/2000/svg" viewBox="0 0 1080 1080" width="1080" height="1080" role="img" aria-label="Imagem SVG">
	<defs>
		<linearGradient id="bg" x1="0" y1="0" x2="1" y2="1">
			<stop offset="0%" stop-color="#0f172a" />
			<stop offset="100%" stop-color="#1d4ed8" />
		</linearGradient>
		<linearGradient id="card" x1="0" y1="0" x2="0" y2="1">
			<stop offset="0%" stop-color="#ffffff" stop-opacity="0.95" />
			<stop offset="100%" stop-color="#dbeafe" stop-opacity="0.95" />
		</linearGradient>
	</defs>

	<rect width="1080" height="1080" fill="url(#bg)" />

	<circle cx="190" cy="170" r="130" fill="#60a5fa" fill-opacity="0.25" />
	<circle cx="930" cy="920" r="170" fill="#93c5fd" fill-opacity="0.2" />

	<g transform="translate(200 210)">
		<rect x="0" y="0" width="680" height="660" rx="40" fill="url(#card)" />
		<rect x="70" y="90" width="540" height="300" rx="24" fill="#1e3a8a" />
		<rect x="110" y="430" width="460" height="26" rx="13" fill="#93c5fd" />
		<rect x="110" y="480" width="380" height="26" rx="13" fill="#bfdbfe" />
		<rect x="110" y="530" width="420" height="26" rx="13" fill="#dbeafe" />

		<g transform="translate(210 150)">
			<rect x="0" y="0" width="260" height="180" rx="18" fill="#eff6ff" />
			<path d="M35 120 L105 70 L155 110 L225 55" fill="none" stroke="#2563eb" stroke-width="12" stroke-linecap="round" stroke-linejoin="round" />
			<circle cx="105" cy="70" r="10" fill="#3b82f6" />
			<circle cx="155" cy="110" r="10" fill="#3b82f6" />
			<circle cx="225" cy="55" r="10" fill="#3b82f6" />
		</g>
	</g>
</svg>
